<svg width="230" height="45" viewBox="0 0 230 45" fill="none" xmlns="http://www.w3.org/2000/svg">
<path d="M77.0305 24.9202C75.612 30.9858 70.9161 34.2142 64.6549 34.2142C56.7306 34.2142 51.8879 28.9802 51.8879 20.42C51.8879 11.5174 56.7795 6.52799 64.4103 6.52799C72.09 6.52799 76.8349 11.713 76.8349 20.1754V21.6429H58.3448C58.6383 26.4366 60.8395 29.078 64.6549 29.078C67.5898 29.078 69.5954 27.7084 70.4269 24.9202H77.0305ZM64.4103 11.6641C61.0841 11.6641 59.0785 13.7675 58.4915 17.7296H70.2802C69.6932 13.8164 67.6877 11.6641 64.4103 11.6641Z" fill="#00263C"/>
<path d="M86.5878 33.4804L77.1471 7.26173H83.8974L89.9629 25.7518L90.6478 28.5889L91.2837 25.7518L97.3492 7.26173H103.757L94.3164 33.4804H86.5878Z" fill="#00263C"/>
<path d="M129.435 24.9202C128.017 30.9858 123.321 34.2142 117.059 34.2142C109.135 34.2142 104.293 28.9802 104.293 20.42C104.293 11.5174 109.184 6.52799 116.815 6.52799C124.495 6.52799 129.239 11.713 129.239 20.1754V21.6429H110.749C111.043 26.4366 113.244 29.078 117.059 29.078C119.994 29.078 122 27.7084 122.831 24.9202H129.435ZM116.815 11.6641C113.489 11.6641 111.483 13.7675 110.896 17.7296H122.685C122.098 13.8164 120.092 11.6641 116.815 11.6641Z" fill="#00263C"/>
<path d="M132.96 33.4804V7.26173H139.221V11.0771C140.933 7.94654 143.574 6.52799 146.411 6.52799C147.488 6.52799 148.466 6.82149 148.955 7.26173V12.6913C148.123 12.4468 147.194 12.3489 146.069 12.3489C141.324 12.3489 139.221 15.186 139.221 19.5395V33.4804H132.96Z" fill="#00263C"/>
<path d="M155.878 44.9756C154.606 44.9756 153.286 44.6332 152.65 44.3886V39.5949H154.117C156.954 39.5949 158.275 39.0079 160.281 34.0185L160.916 32.4043L150.595 7.26173H157.297L163.118 22.4745L164.194 26.2899L165.27 22.4745L170.846 7.26173H177.254L165.71 36.073C163.02 42.8722 160.672 44.9756 155.878 44.9756Z" fill="#00263C"/>
<path d="M178.657 33.5294V31.6706C178.657 17.6318 194.897 18.1699 194.897 11.3706C194.897 8.77811 193.381 7.31064 190.837 7.31064C187.951 7.31064 186.484 8.87594 186.044 11.5174H178.511C179.342 5.15836 183.94 1.24512 190.886 1.24512C198.419 1.24512 202.381 5.79426 202.381 11.2728C202.381 20.2733 189.761 21.594 186.68 27.8062H202.333V33.5294H178.657Z" fill="#00263C"/>
<path d="M218.923 33.4804H211.097C212.418 23.4528 216.282 14.9904 221.76 7.75088H206.303V2.02777H229.685V6.72365C223.375 15.186 219.706 24.1865 218.923 33.4804Z" fill="#00263C"/>
<path d="M2.7893 0.955078C1.56702 0.955078 0.576172 1.92368 0.576172 3.11852V35.7112C0.576172 38.8974 3.21844 41.4803 6.47783 41.4803H33.6255C36.8849 41.4803 39.5272 38.8974 39.5272 35.7112V24.5955L28.331 35.5403C27.8407 36.0194 27.1759 36.2886 26.4826 36.2886C25.7894 36.2886 25.1245 36.0194 24.6342 35.5403L14.1767 25.3175C13.7005 24.8355 13.437 24.19 13.4429 23.5199C13.4489 22.8498 13.7238 22.2088 14.2086 21.7349C14.6933 21.2611 15.349 20.9923 16.0345 20.9865C16.72 20.9806 17.3804 21.2382 17.8734 21.7038L26.5009 30.1376L39.5272 17.4038V13.8679L28.3002 24.8428C27.8983 25.2356 27.3532 25.4563 26.7848 25.4563C26.2165 25.4563 25.6714 25.2356 25.2694 24.8428L16.6957 16.4616C16.3052 16.0664 16.0892 15.5371 16.0941 14.9877C16.099 14.4383 16.3244 13.9128 16.7218 13.5243C17.1192 13.1358 17.6568 12.9154 18.2188 12.9107C18.7808 12.9059 19.3222 13.1171 19.7265 13.4988L26.7998 20.4133L39.5272 7.97171V3.11852C39.5272 1.92368 38.5363 0.955078 37.314 0.955078H34.6583C33.436 0.955078 32.4452 1.92368 32.4452 3.11852V3.98066H28.9042V3.11852C28.9042 1.92368 27.9133 0.955078 26.691 0.955078H24.0353C22.813 0.955078 21.8222 1.92368 21.8222 3.11852V3.98066H18.2812V3.11852C18.2812 1.92368 17.2903 0.955078 16.068 0.955078H13.4123C12.19 0.955078 11.1992 1.92368 11.1992 3.11852V3.98066H7.65817V3.11852C7.65817 1.92368 6.66732 0.955078 5.44504 0.955078H2.7893Z" fill="#0E84F1"/>
</svg>
